<svg xmlns="http://www.w3.org/2000/svg" viewBox="0 0 760 540" role="img" aria-labelledby="title desc">
<title id="title">Genial Matura Lernplattform Illustration</title><desc id="desc">Eine Lernplattform mit Quizmodus, Aufgaben, Fortschrittsanzeige und Matura-Paket.</desc>
<rect width="760" height="540" rx="38" fill="#EDE9FE"/>
<rect x="62" y="58" width="636" height="424" rx="30" fill="#FFFFFF"/>
<rect x="92" y="92" width="576" height="68" rx="18" fill="#4C1D95"/>
<text x="122" y="136" font-family="Arial" font-size="24" font-weight="700" fill="#FFFFFF">Genial Matura Dashboard</text>
<rect x="112" y="202" width="245" height="122" rx="24" fill="#F5F3FF" stroke="#6D28D9" stroke-width="3"/>
<text x="138" y="244" font-family="Arial" font-size="22" font-weight="700" fill="#4C1D95">Quizmodus</text>
<text x="138" y="276" font-family="Arial" font-size="16" fill="#475569">Feedback nach jeder Aufgabe</text>
<rect x="404" y="202" width="245" height="122" rx="24" fill="#F0FDF4" stroke="#16A34A" stroke-width="3"/>
<text x="430" y="244" font-family="Arial" font-size="22" font-weight="700" fill="#166534">Lernplan</text>
<text x="430" y="276" font-family="Arial" font-size="16" fill="#475569">Wiederholen nach Priorität</text>
<rect x="112" y="360" width="537" height="36" rx="12" fill="#E2E8F0"/>
<rect x="112" y="360" width="382" height="36" rx="12" fill="#6D28D9"/>
<text x="112" y="432" font-family="Arial" font-size="20" font-weight="700" fill="#0B1120">72% vorbereitet</text>
<path d="M592 84l6 13 14 2-10 10 3 14-13-7-12 7 2-14-10-10 14-2z" fill="#16A34A"/>
</svg>